<svg id="Capa_1" enable-background="new 0 0 512 512" height="512" viewBox="0 0 512 512" width="512" xmlns="http://www.w3.org/2000/svg"><path d="m346.965 66.417c-1.493.213-2.646-1.239-2.145-2.662 6.438-18.292-6.98-38.518-27.315-38.518-10.491 0-19.672 5.599-24.739 13.977-.925 1.53-3.247 1.247-3.68-.487-4.476-17.939-20.664-31.227-39.955-31.227-16.01 0-29.878 9.156-36.693 22.523-.677 1.328-2.532 1.474-3.388.254-6.853-9.767-18.18-16.154-31.002-16.154-15.768 0-29.284 9.652-34.988 23.38-.574 1.381-2.392 1.645-3.363.508-5.011-5.866-12.451-9.586-20.762-9.586-19.047 0-31.64 18.748-25.987 35.885.482 1.461-.82 2.922-2.319 2.578-19.306-4.433-38.629 10.196-38.629 30.921 0 17.503 14.162 31.691 31.631 31.691s250.269 0 267.738 0 31.631-14.189 31.631-31.691c0-19.464-17.277-34.071-36.035-31.392z" fill="#f5f5f5"/><path d="m346.965 66.417c-1.493.213-2.646-1.239-2.146-2.662 6.438-18.292-6.98-38.518-27.315-38.518-10.491 0-19.672 5.599-24.739 13.977-.925 1.53-3.247 1.247-3.68-.487-4.475-17.939-20.663-31.227-39.954-31.227-4.7 0-9.208.808-13.414 2.262 10.864 3.361 18.855 10.611 22.767 22.68 2.047 6.314 9.342 13.691 15.628 16.733 5.767 2.791 9.217 5.699 19.349 2.977 12.465-3.349 27.736 2.568 33.302 16.348 6.697 16.582 26.237 8.396 26.237 29.309 0 17.503-14.162 31.691-31.631 31.691h30c17.469 0 31.631-14.189 31.631-31.691 0-19.464-17.277-34.071-36.035-31.392z" fill="#e6e6e6"/><path d="m347.08 504.5h-259.16c-8.516 0-15.42-6.904-15.42-15.42v-23.16c0-8.517 6.904-15.42 15.42-15.42h259.16c8.517 0 15.42 6.904 15.42 15.42v23.159c0 8.517-6.904 15.421-15.42 15.421z" fill="#8cf2ff"/><path d="m347.08 450.5h-30c8.516 0 15.42 6.904 15.42 15.42v23.159c0 8.516-6.904 15.42-15.42 15.42h30c8.516 0 15.42-6.904 15.42-15.42v-23.159c0-8.516-6.904-15.42-15.42-15.42z" fill="#63e9ff"/><path d="m348 450.5h-261c-16.569 0-30-13.431-30-30v-287c0-2.209 1.791-4 4-4h313c2.209 0 4 1.791 4 4v287c0 16.569-13.431 30-30 30z" fill="#f5f5f5"/><path d="m374 129.5h-30c2.209 0 4 1.791 4 4v287c0 16.569-13.431 30-30 30h30c16.569 0 30-13.431 30-30v-287c0-2.209-1.791-4-4-4z" fill="#e6e6e6"/><path d="m348 450.5h-261c-16.569 0-30-13.431-30-30v-188.688h321v188.688c0 16.569-13.431 30-30 30z" fill="#ffd54f"/><path d="m348 231.812v188.688c0 16.569-13.431 30-30 30h30c16.569 0 30-13.431 30-30v-188.688z" fill="#ffb300"/><path d="m460 196.012v178c0 20.987-17.013 38-38 38h-44v-30h40c6.627 0 12-5.373 12-12v-170c0-6.627-5.373-12-12-12h-40v-30h44c20.987 0 38 17.013 38 38z" fill="#63e9ff"/><g fill="#e6e6e6"><path d="m121 154c-8.284 0-15 6.716-15 15v242c0 8.284 6.716 15 15 15s15-6.716 15-15v-242c0-8.284-6.716-15-15-15z"/><path d="m183.5 154c-8.284 0-15 6.716-15 15v242c0 8.284 6.716 15 15 15s15-6.716 15-15v-242c0-8.284-6.716-15-15-15z"/><path d="m246 154c-8.284 0-15 6.716-15 15v242c0 8.284 6.716 15 15 15s15-6.716 15-15v-242c0-8.284-6.716-15-15-15z"/><path d="m308.5 154c-8.284 0-15 6.716-15 15v242c0 8.284 6.716 15 15 15s15-6.716 15-15v-242c0-8.284-6.716-15-15-15z"/></g><path d="m106 231.812v179.188c0 8.284 6.716 15 15 15s15-6.716 15-15v-179.188z" fill="#ffb300"/><path d="m168.5 231.812v179.188c0 8.284 6.716 15 15 15s15-6.716 15-15v-179.188z" fill="#ffb300"/><path d="m231 231.812v179.188c0 8.284 6.716 15 15 15s15-6.716 15-15v-179.188z" fill="#ffb300"/><path d="m293.5 231.812v179.188c0 8.284 6.716 15 15 15s15-6.716 15-15v-179.188z" fill="#ffb300"/><path d="m460 231.372c4.143 0 7.5-3.358 7.5-7.5v-27.86c0-25.089-20.411-45.5-45.5-45.5h-36.5v-17.012c0-3.949-2.002-7.438-5.043-9.509 6.239-6.945 10.043-16.126 10.043-26.182 0-11.374-4.923-22.167-13.507-29.612-6.595-5.72-14.81-9.025-23.329-9.527 2.544-20.888-13.419-40.933-36.159-40.933-9.323 0-18.016 3.465-24.629 9.578-8.024-16.475-24.826-27.315-43.745-27.315-15.678 0-30.073 7.417-39.163 19.783-8.428-8.348-19.884-13.16-31.92-13.16-15.794 0-30.157 8.104-38.375 21.164-5.946-4.42-13.193-6.861-20.738-6.861-20.982 0-36.26 18.003-34.727 37.667-20.952-.374-39.708 16.592-39.708 39.216 0 10.056 3.804 19.236 10.043 26.181-3.041 2.071-5.043 5.56-5.043 9.509v26.465c0 4.142 3.358 7.5 7.5 7.5s7.5-3.358 7.5-7.5v-22.964h306v87.312h-39.5v-55.312c0-12.407-10.094-22.5-22.5-22.5s-22.5 10.093-22.5 22.5v55.312h-17.5v-55.312c0-12.407-10.094-22.5-22.5-22.5-12.407 0-22.5 10.093-22.5 22.5v55.312h-17.5v-55.312c0-12.407-10.093-22.5-22.5-22.5s-22.5 10.093-22.5 22.5v55.312h-17.5v-55.312c0-12.407-10.093-22.5-22.5-22.5s-22.5 10.093-22.5 22.5v55.312h-34v-32.812c0-4.142-3.358-7.5-7.5-7.5s-7.5 3.358-7.5 7.5v229c0 14.082 7.806 26.369 19.314 32.78-2.407 3.626-3.814 7.971-3.814 12.64v23.159c0 12.639 10.282 22.921 22.92 22.921h40.133c4.142 0 7.5-3.358 7.5-7.5s-3.358-7.5-7.5-7.5h-40.133c-4.367 0-7.92-3.553-7.92-7.92v-23.16c0-4.367 3.553-7.92 7.92-7.92h259.159c4.367 0 7.921 3.553 7.921 7.92v23.159c0 4.367-3.554 7.92-7.921 7.92h-186.84c-4.142 0-7.5 3.358-7.5 7.5s3.358 7.5 7.5 7.5h186.84c12.639.001 22.921-10.281 22.921-22.919v-23.16c0-4.669-1.407-9.014-3.814-12.641 11.508-6.41 19.314-18.698 19.314-32.78v-.988h36.5c25.089 0 45.5-20.411 45.5-45.5v-118.011c0-4.142-3.357-7.5-7.5-7.5s-7.5 3.358-7.5 7.5v118.012c0 16.818-13.683 30.5-30.5 30.5h-36.5v-15h32.5c10.752 0 19.5-8.748 19.5-19.5v-170c0-10.752-8.748-19.5-19.5-19.5h-32.5v-15h36.5c16.817 0 30.5 13.682 30.5 30.5v27.86c0 4.142 3.357 7.5 7.5 7.5zm-376.369-109.372c-13.306 0-24.131-10.852-24.131-24.191 0-15.735 14.674-27.006 29.45-23.611 7.184 1.646 13.429-5.239 11.12-12.238-4.089-12.396 5.042-26.035 18.864-26.035 5.793 0 11.282 2.536 15.06 6.958 4.61 5.396 13.272 4.042 15.992-2.502 4.734-11.395 15.75-18.758 28.062-18.758 9.873 0 19.167 4.846 24.862 12.961 4.101 5.847 12.963 5.214 16.209-1.154 5.796-11.368 17.296-18.43 30.012-18.43 15.488 0 28.926 10.503 32.678 25.541 2.04 8.178 12.991 9.797 17.374 2.555 3.924-6.486 10.773-10.358 18.322-10.358 15.151 0 24.965 15.105 20.24 28.527-2.375 6.745 3.225 13.587 10.28 12.577 6.867-.98 13.841 1.093 19.14 5.688 5.375 4.662 8.335 11.154 8.335 18.28 0 13.339-10.825 24.191-24.131 24.191h-267.738zm217.369 47c0-4.136 3.364-7.5 7.5-7.5s7.5 3.364 7.5 7.5v55.312h-15zm0 70.312h15v171.688c0 4.136-3.364 7.5-7.5 7.5s-7.5-3.364-7.5-7.5zm-62.5-70.312c0-4.136 3.364-7.5 7.5-7.5s7.5 3.364 7.5 7.5v55.312h-15zm0 70.312h15v171.688c0 4.136-3.364 7.5-7.5 7.5s-7.5-3.364-7.5-7.5zm-62.5-70.312c0-4.136 3.364-7.5 7.5-7.5s7.5 3.364 7.5 7.5v55.312h-15zm0 70.312h15v171.688c0 4.136-3.364 7.5-7.5 7.5s-7.5-3.364-7.5-7.5zm-62.5-70.312c0-4.136 3.364-7.5 7.5-7.5s7.5 3.364 7.5 7.5v55.312h-15zm0 70.312h15v171.688c0 4.136-3.364 7.5-7.5 7.5s-7.5-3.364-7.5-7.5zm257 181.188c0 12.407-10.094 22.5-22.5 22.5h-261c-12.407 0-22.5-10.093-22.5-22.5v-181.188h34v171.688c0 12.407 10.093 22.5 22.5 22.5s22.5-10.093 22.5-22.5v-171.688h17.5v171.688c0 12.407 10.093 22.5 22.5 22.5s22.5-10.093 22.5-22.5v-171.688h17.5v171.688c0 12.407 10.093 22.5 22.5 22.5 12.406 0 22.5-10.093 22.5-22.5v-171.688h17.5v171.688c0 12.407 10.094 22.5 22.5 22.5s22.5-10.093 22.5-22.5v-171.688h39.5zm47.5-224.988c2.481 0 4.5 2.019 4.5 4.5v170c0 2.481-2.019 4.5-4.5 4.5h-32.5v-179z"/><path d="m159.879 63.53c-15.354-6.684-33.282.368-39.966 15.721-1.653 3.798.085 8.217 3.883 9.871 3.805 1.657 8.22-.092 9.87-3.883 1.639-3.763 4.645-6.664 8.465-8.167 3.82-1.502 7.997-1.427 11.76.211 3.796 1.653 8.216-.084 9.87-3.883 1.654-3.797-.084-8.216-3.882-9.87z"/><path d="m252.018 59.114c-3.9 1.396-5.929 5.689-4.533 9.589 1.396 3.898 5.688 5.931 9.588 4.533 9.604-3.436 20.212 1.579 23.649 11.181 1.395 3.895 5.684 5.931 9.59 4.533 3.899-1.396 5.929-5.689 4.533-9.589-6.226-17.389-25.441-26.472-42.827-20.247z"/></svg>